<svg width="40" height="40" viewBox="0 0 40 40" fill="none" xmlns="http://www.w3.org/2000/svg">
<path d="M35 26.6696V13.329C34.9995 12.8923 34.8846 12.4635 34.6668 12.085C34.449 11.7066 34.1359 11.3918 33.7586 11.172L21.8836 4.26101C21.3115 3.92792 20.6613 3.75244 19.9992 3.75244C19.3372 3.75244 18.687 3.92792 18.1148 4.26101L6.24141 11.172C5.86413 11.3918 5.55102 11.7066 5.33322 12.085C5.11542 12.4635 5.00053 12.8923 5 13.329V26.6696C5.00026 27.1065 5.11501 27.5357 5.33283 27.9145C5.55064 28.2932 5.86391 28.6082 6.24141 28.8282L18.1164 35.7391C18.6887 36.0718 19.3388 36.247 20.0008 36.247C20.6627 36.247 21.3129 36.0718 21.8852 35.7391L33.7602 28.8282C34.1374 28.6081 34.4503 28.2929 34.6678 27.9142C34.8854 27.5355 34.9999 27.1064 35 26.6696Z" stroke="#B91646" stroke-width="3" stroke-linecap="round" stroke-linejoin="round"/>
<path d="M5.39062 12.0305L20 20.6243M20 20.6243L34.6094 12.0305M20 20.6243V36.2493" stroke="#B91646" stroke-width="3" stroke-linecap="round" stroke-linejoin="round"/>
<path d="M20 13.125C21.0355 13.125 21.875 12.5654 21.875 11.875C21.875 11.1846 21.0355 10.625 20 10.625C18.9645 10.625 18.125 11.1846 18.125 11.875C18.125 12.5654 18.9645 13.125 20 13.125Z" fill="#B91646"/>
<path d="M16.25 25C16.9404 25 17.5 24.1605 17.5 23.125C17.5 22.0895 16.9404 21.25 16.25 21.25C15.5596 21.25 15 22.0895 15 23.125C15 24.1605 15.5596 25 16.25 25Z" fill="#B91646"/>
<path d="M8.75 27.5C9.44036 27.5 10 26.6605 10 25.625C10 24.5895 9.44036 23.75 8.75 23.75C8.05964 23.75 7.5 24.5895 7.5 25.625C7.5 26.6605 8.05964 27.5 8.75 27.5Z" fill="#B91646"/>
<path d="M23.75 25C24.4404 25 25 24.1605 25 23.125C25 22.0895 24.4404 21.25 23.75 21.25C23.0596 21.25 22.5 22.0895 22.5 23.125C22.5 24.1605 23.0596 25 23.75 25Z" fill="#B91646"/>
<path d="M31.25 20.625C31.9404 20.625 32.5 19.7855 32.5 18.75C32.5 17.7145 31.9404 16.875 31.25 16.875C30.5596 16.875 30 17.7145 30 18.75C30 19.7855 30.5596 20.625 31.25 20.625Z" fill="#B91646"/>
<path d="M23.75 31.875C24.4404 31.875 25 31.0355 25 30C25 28.9645 24.4404 28.125 23.75 28.125C23.0596 28.125 22.5 28.9645 22.5 30C22.5 31.0355 23.0596 31.875 23.75 31.875Z" fill="#B91646"/>
<path d="M31.25 27.5C31.9404 27.5 32.5 26.6605 32.5 25.625C32.5 24.5895 31.9404 23.75 31.25 23.75C30.5596 23.75 30 24.5895 30 25.625C30 26.6605 30.5596 27.5 31.25 27.5Z" fill="#B91646"/>
</svg>
